<?xml version="1.0" encoding="UTF-8" standalone="no"?>
<!-- Created with Inkscape (http://www.inkscape.org/) -->

<svg
        xmlns:inkscape="http://www.inkscape.org/namespaces/inkscape"
        xmlns:sodipodi="http://sodipodi.sourceforge.net/DTD/sodipodi-0.dtd"
        width="64"
        height="64"
        viewBox="0 0 64 64"
        version="1.1"
        id="svg1"
        inkscape:version="1.3.2 (091e20ef0f, 2023-11-25, custom)"
        sodipodi:docname="download.svg"
        inkscape:export-filename="download.png"
        inkscape:export-xdpi="24"
        inkscape:export-ydpi="24"
        xmlns="http://www.w3.org/2000/svg"
>
    <sodipodi:namedview
            id="namedview1"
            pagecolor="#ffffff"
            bordercolor="#000000"
            borderopacity="0.25"
            inkscape:showpageshadow="2"
            inkscape:pageopacity="0.0"
            inkscape:pagecheckerboard="0"
            inkscape:deskcolor="#d1d1d1"
            inkscape:document-units="px"
            inkscape:zoom="8.7031251"
            inkscape:cx="48.54578"
            inkscape:cy="43.317773"
            inkscape:window-width="2991"
            inkscape:window-height="1194"
            inkscape:window-x="0"
            inkscape:window-y="0"
            inkscape:window-maximized="1"
            inkscape:current-layer="svg1"/>
    <defs
            id="defs1"/>
    <g
            inkscape:label="Layer 1"
            inkscape:groupmode="layer"
            id="layer1"
            transform="matrix(0.13454107,0,0,0.13454107,-2.8135283,-2.3188431)">
        <circle
                style="fill:#46bac6;fill-opacity:1"
                id="path1"
                cx="258.75763"
                cy="255.0808"
                r="237.8456"/>
        <g
                id="g2"
                style="fill:#ffffff"
                transform="matrix(0.49271292,0,0,0.49271292,129.86574,129.86549)">
            <path
                    class="st0"
                    d="m 230.546,324.601 c 6.688,6.703 15.969,10.547 25.454,10.547 9.469,0 18.75,-3.844 25.453,-10.547 L 398.422,207.64 c 14.062,-14.054 14.062,-36.851 0,-50.906 -14.062,-14.062 -36.859,-14.062 -50.906,0 v -0.007 L 292,212.242 V 38.188 c 0,-19.883 -16.125,-36 -36,-36 -19.89,0 -36,16.117 -36,36 v 174.046 l -55.5,-55.5 c -14.062,-14.062 -36.859,-14.062 -50.906,-0.007 -14.062,14.062 -14.062,36.859 0,50.914 z"
                    id="path1-2"
                    style="fill:#ffffff"/>
            <path
                    class="st0"
                    d="M 473.453,383.148 H 333.406 c -13.36,29.469 -42.954,50 -77.406,50 -34.454,0 -64.047,-20.531 -77.39,-50 H 38.562 C 17.266,383.148 0,400.406 0,421.696 v 49.562 c 0,21.297 17.266,38.554 38.562,38.554 h 434.89 c 21.297,0 38.547,-17.258 38.547,-38.554 V 421.696 C 512,400.406 494.75,383.148 473.453,383.148 Z"
                    id="path2"
                    style="fill:#ffffff"/>
        </g>
    </g>
</svg>
