<?xml version="1.0" encoding="UTF-8" standalone="no"?>
<!-- Created with Inkscape (http://www.inkscape.org/) -->

<svg
   width="48"
   version="1.1"
   height="48"
   viewBox="0 0 48 48"
   id="svg1"
   sodipodi:docname="duplicate.svg"
   inkscape:version="1.3.2 (091e20ef0f, 2023-11-25, custom)"
   xml:space="preserve"
   xmlns:inkscape="http://www.inkscape.org/namespaces/inkscape"
   xmlns:sodipodi="http://sodipodi.sourceforge.net/DTD/sodipodi-0.dtd"
   xmlns:xlink="http://www.w3.org/1999/xlink"
   xmlns="http://www.w3.org/2000/svg"
   xmlns:svg="http://www.w3.org/2000/svg"><sodipodi:namedview
     id="namedview1"
     pagecolor="#ffffff"
     bordercolor="#000000"
     borderopacity="0.25"
     inkscape:showpageshadow="2"
     inkscape:pageopacity="0.0"
     inkscape:pagecheckerboard="0"
     inkscape:deskcolor="#d1d1d1"
     inkscape:zoom="11.313709"
     inkscape:cx="37.388269"
     inkscape:cy="23.511299"
     inkscape:window-width="2991"
     inkscape:window-height="1194"
     inkscape:window-x="0"
     inkscape:window-y="0"
     inkscape:window-maximized="1"
     inkscape:current-layer="svg1" /><defs
     id="defs5455"><linearGradient
       id="linearGradient4256"><stop
         style="stop-color:#8cbdf8"
         id="stop4258" /><stop
         offset="1"
         style="stop-color:#d5e8ff"
         id="stop4260" /></linearGradient><linearGradient
       id="linearGradient4232"><stop
         style="stop-color:#3889e9"
         id="stop4234-0" /><stop
         offset="1"
         style="stop-color:#5ea5fb"
         id="stop4236" /></linearGradient><linearGradient
       id="a"
       x1="300"
       x2="300"
       y1="44"
       y2="556"
       gradientUnits="userSpaceOnUse"><stop
         offset="0"
         stop-color="#46bac6"
         id="stop1" /><stop
         offset="1"
         stop-color="#1497a5"
         id="stop2" /></linearGradient><linearGradient
       id="linearGradient4194"><stop
         style="stop-color:#b5006a"
         id="stop4196" /><stop
         offset="1"
         style="stop-color:#c70073"
         id="stop4198" /></linearGradient><linearGradient
       inkscape:collect="always"
       xlink:href="#linearGradient848"
       id="linearGradient854"
       gradientUnits="userSpaceOnUse"
       x1="203.3689"
       y1="55.640129"
       x2="244.86897"
       y2="55.640129" /><linearGradient
       inkscape:collect="always"
       id="linearGradient848"><stop
         style="stop-color:#4b8bd4;stop-opacity:1"
         offset="0"
         id="stop844" /><stop
         style="stop-color:#3b6ca7;stop-opacity:1"
         offset="1"
         id="stop846" /></linearGradient><linearGradient
       inkscape:collect="always"
       xlink:href="#linearGradient848"
       id="linearGradient1004"
       gradientUnits="userSpaceOnUse"
       x1="387.57144"
       y1="505.798"
       x2="445.57141"
       y2="505.798"
       gradientTransform="matrix(1.3888828,0,0,1,-172.49732,0)" /><linearGradient
       id="linearGradient4301"><stop
         style="stop-color:#f10000;stop-opacity:1"
         offset="0"
         id="stop4303" /><stop
         style="stop-color:#b20000;stop-opacity:1"
         offset="1"
         id="stop4305" /></linearGradient><linearGradient
       id="linearGradient4305"><stop
         style="stop-color:#ffffff;stop-opacity:1;"
         offset="0"
         id="stop4307" /><stop
         style="stop-color:#ffffff;stop-opacity:0;"
         offset="1"
         id="stop4309" /></linearGradient><linearGradient
       id="linearGradient4428"
       y1="4.7160001"
       x1="17.483"
       y2="39.833"
       x2="37.757999"
       gradientUnits="userSpaceOnUse"
       gradientTransform="matrix(-0.99376,-0.00423,0.00423,0.98887,47.823,2.34)"><stop
         stop-color="#3fc380"
         id="stop4430"
         style="stop-color:#3cc6ae;stop-opacity:1" /><stop
         offset="1"
         stop-color="#3f8ed3"
         id="stop4432"
         style="stop-color:#3f7ad3;stop-opacity:1" /></linearGradient><linearGradient
       id="a-2"
       y1="543.79999"
       y2="503.79999"
       x2="0"
       gradientUnits="userSpaceOnUse"
       gradientTransform="translate(-384.57,-499.8)"><stop
         stop-color="#2a2c2f"
         id="stop7" /><stop
         offset="1"
         stop-color="#424649"
         id="stop9" /></linearGradient><linearGradient
       id="b"
       y1="532.79999"
       y2="506.79999"
       x2="0"
       gradientUnits="userSpaceOnUse"><stop
         stop-color="#989a9b"
         id="stop12" /><stop
         offset="1"
         stop-color="#f6f6f7"
         id="stop14" /></linearGradient><linearGradient
       id="c"
       y1="522.79999"
       x1="403.57001"
       y2="534.79999"
       x2="413.26001"
       gradientUnits="userSpaceOnUse"><stop
         stop-color="#020303"
         id="stop17" /><stop
         offset="1"
         stop-color="#424649"
         stop-opacity="0"
         id="stop19" /></linearGradient><linearGradient
       xlink:href="#c"
       id="d"
       y1="521.79999"
       x1="400.76999"
       y2="533.59998"
       gradientUnits="userSpaceOnUse"
       x2="412.57001" /><path
       fill-rule="evenodd"
       id="e"
       d="m 426.57,529.8 -16,11 -8,-8 -2,-9 17,-5 z" /><linearGradient
       gradientUnits="userSpaceOnUse"
       x2="0"
       y2="503.79999"
       y1="543.79999"
       id="a-3"><stop
         id="stop4268"
         stop-color="#2a2c2f" /><stop
         id="stop4270"
         stop-color="#424649"
         offset="1" /></linearGradient><linearGradient
       gradientUnits="userSpaceOnUse"
       x2="0"
       y2="506.79999"
       y1="532.79999"
       id="b-6"><stop
         id="stop4273"
         stop-color="#989a9b" /><stop
         id="stop4275"
         stop-color="#f6f6f7"
         offset="1" /></linearGradient><path
       d="m 426.57,529.8 -16,11 -8,-8 -2,-9 17,-5 z"
       id="e-5"
       fill-rule="evenodd" /><linearGradient
       gradientTransform="matrix(-0.99376,-0.00423,0.00423,0.98887,47.823,2.34)"
       gradientUnits="userSpaceOnUse"
       x2="37.757999"
       y2="39.833"
       x1="17.483"
       y1="4.7160001"
       id="a-35"><stop
         id="stop4339"
         stop-color="#3fc380" /><stop
         id="stop4341"
         stop-color="#3f8ed3"
         offset="1" /></linearGradient><linearGradient
       gradientTransform="matrix(-0.99376,-0.00423,0.00423,0.98887,97.823,31.34)"
       gradientUnits="userSpaceOnUse"
       x2="37.757999"
       y2="39.833"
       x1="17.483"
       y1="4.7160001"
       id="b-62"
       xlink:href="#a-35" /><linearGradient
       gradientTransform="matrix(-0.99376,-0.00423,0.00423,0.98887,97.823,16.34)"
       gradientUnits="userSpaceOnUse"
       x2="37.757999"
       y2="39.833"
       x1="17.483"
       y1="4.7160001"
       id="c-9"
       xlink:href="#a-35" /><linearGradient
       gradientTransform="matrix(-0.99376,-0.0067,0.00423,1.56572,47.823,12.372)"
       gradientUnits="userSpaceOnUse"
       x2="37.757999"
       y2="39.833"
       x1="17.483"
       y1="4.7160001"
       id="d-1"><stop
         id="stop4346"
         stop-color="#148e76" /><stop
         id="stop4348"
         stop-color="#218059"
         offset="1" /></linearGradient><linearGradient
       gradientTransform="translate(0,-2)"
       gradientUnits="userSpaceOnUse"
       x2="43"
       y2="31"
       x1="4"
       y1="18"
       id="e-2"><stop
         id="stop4351"
         stop-color="#292c2f"
         style="stop-color:#000000;stop-opacity:1" /><stop
         id="stop4353"
         stop-opacity="0"
         offset="1"
         style="stop-color:#000000;stop-opacity:0.32644629" /></linearGradient><linearGradient
       gradientTransform="translate(0,14)"
       gradientUnits="userSpaceOnUse"
       x2="44"
       y2="28"
       x1="30.625"
       y1="14"
       id="f"
       xlink:href="#e-2" /><linearGradient
       gradientTransform="matrix(0.99376,0.0067,-0.00423,-1.56572,50.177,5.628)"
       gradientUnits="userSpaceOnUse"
       x2="37.757999"
       y2="39.833"
       x1="17.483"
       y1="4.7160001"
       id="g"
       xlink:href="#d-1" /><linearGradient
       x1="428.81601"
       gradientTransform="translate(-384.57,-499.8)"
       gradientUnits="userSpaceOnUse"
       x2="388.86499"
       y2="499.67899"
       y1="547.63397"
       id="a-9"><stop
         id="stop7-3"
         stop-color="#2a2c2f" /><stop
         id="stop9-6"
         stop-color="#536161"
         offset="1" /></linearGradient><linearGradient
       x1="36"
       gradientUnits="userSpaceOnUse"
       x2="14"
       y2="12"
       y1="44"
       id="b-0"><stop
         style="stop-color:#bfc9c9;stop-opacity:1"
         id="stop12-6"
         stop-color="#536161" /><stop
         style="stop-color:#fbfbfb;stop-opacity:1"
         id="stop14-2"
         stop-color="#f4f5f5"
         offset="1" /></linearGradient><linearGradient
       gradientTransform="translate(-384.57,-499.8)"
       gradientUnits="userSpaceOnUse"
       x2="419.974"
       y2="539.82501"
       x1="418.57001"
       y1="529.79999"
       id="c-61"><stop
         id="stop17-8"
         stop-color="#292c2f" /><stop
         id="stop19-7"
         stop-opacity="0"
         offset="1" /></linearGradient><style
       type="text/css"
       id="current-color-scheme">.ColorScheme-Text { color: #fcfcfc; } </style><linearGradient
       gradientTransform="translate(-404.99,-523.8)"
       gradientUnits="userSpaceOnUse"
       x2="419.974"
       y2="539.82501"
       x1="406.50101"
       y1="527.01398"
       id="c-6"><stop
         id="stop17-7"
         stop-color="#292c2f" /><stop
         id="stop19-5"
         stop-opacity="0"
         offset="1" /></linearGradient><linearGradient
       xlink:href="#linearGradient4428"
       id="linearGradient4408-1"
       gradientUnits="userSpaceOnUse"
       gradientTransform="matrix(-0.99376,-0.00423,0.00423,0.98887,43.823,-1.66)"
       x1="9.875"
       y1="-2.3239999"
       x2="44.278"
       y2="42.318001" /><linearGradient
       id="a-8"><stop
         id="stop4631"
         stop-opacity=".742"
         stop-color="#dcedfe" /><stop
         id="stop4633"
         stop-opacity="0"
         stop-color="#dcedfe"
         offset="1" /></linearGradient><linearGradient
       gradientTransform="translate(15.653,1.018)"
       x2="40.709"
       gradientUnits="userSpaceOnUse"
       y2="30.416"
       x1="10.972"
       y1="-0.017999999"
       id="b-4"><stop
         id="stop4636" /><stop
         id="stop4638"
         stop-opacity="0"
         offset="1" /></linearGradient><linearGradient
       gradientTransform="translate(23.03,5.02)"
       x2="29.129999"
       gradientUnits="userSpaceOnUse"
       y2="22.129999"
       x1="11"
       y1="4"
       id="c-5"
       xlink:href="#b-4" /><linearGradient
       gradientTransform="translate(-99.4835,-40.4835)"
       x2="30.347"
       gradientUnits="userSpaceOnUse"
       y2="45.981998"
       x1="7.3470001"
       y1="6.9819999"
       id="d-0"><stop
         id="stop4642"
         stop-color="#eeeeee" /><stop
         id="stop4644"
         stop-color="#cccccc"
         offset="1" /></linearGradient><linearGradient
       gradientTransform="matrix(1,0,0,1.0091,-110.9855,-40.7775)"
       x2="0"
       gradientUnits="userSpaceOnUse"
       y2="32"
       y1="36"
       id="e-3"><stop
         id="stop4647"
         stop-color="#c58c00" /><stop
         id="stop4649"
         stop-color="#ffc318"
         offset="1" /></linearGradient><linearGradient
       gradientTransform="matrix(1,0,0,1.25,-111.4835,-50.4855)"
       x2="19"
       gradientUnits="userSpaceOnUse"
       y2="33"
       x1="23.219999"
       y1="42.986"
       id="f-6"><stop
         id="stop4652"
         stop-color="#70431c" /><stop
         id="stop4654"
         stop-color="#be8c5a"
         offset="1" /></linearGradient><linearGradient
       gradientTransform="translate(-106.4835,-44.4855)"
       x2="21"
       gradientUnits="userSpaceOnUse"
       y2="46"
       x1="13.98"
       y1="38.957001"
       id="g-1"
       xlink:href="#b-4" /><linearGradient
       gradientUnits="userSpaceOnUse"
       x2="0"
       y2="2.987"
       y1="43.922001"
       id="h"
       gradientTransform="translate(-122.5135,-45.5035)"><stop
         id="stop4658"
         stop-color="#22a7f0" /><stop
         id="stop4660"
         stop-color="#19b5fe"
         offset="1" /></linearGradient><linearGradient
       gradientUnits="userSpaceOnUse"
       x2="0"
       y2="34.040001"
       y1="43.922001"
       id="i"><stop
         id="stop4663"
         stop-color="#c8e3fe" /><stop
         id="stop4665"
         stop-color="#e4f1fe"
         offset="1" /></linearGradient><linearGradient
       gradientUnits="userSpaceOnUse"
       x2="27"
       x1="19"
       y2="44"
       y1="33.998001"
       id="j"><stop
         id="stop4668"
         stop-color="#383e51" /><stop
         id="stop4670"
         stop-opacity="0"
         stop-color="#655c6f"
         offset="1" /></linearGradient><radialGradient
       gradientTransform="matrix(0.59169,-0.93256,2.10028,1.33257,-80.07,8.555)"
       gradientUnits="userSpaceOnUse"
       r="16"
       id="k"
       xlink:href="#a-8"
       cy="48.672001"
       cx="31.01" /><radialGradient
       gradientTransform="matrix(0.53188,-0.49081,0.78529,0.851,-19.809,-0.579)"
       gradientUnits="userSpaceOnUse"
       r="16"
       id="l"
       xlink:href="#a-8"
       cy="38.130001"
       cx="30.299999" /><linearGradient
       gradientUnits="userSpaceOnUse"
       x2="0"
       y2="503.79999"
       y1="543.79999"
       id="a-0"><stop
         id="stop4858"
         stop-color="#2a2c2f" /><stop
         id="stop4860"
         stop-color="#424649"
         offset="1" /></linearGradient><linearGradient
       gradientUnits="userSpaceOnUse"
       x2="0"
       y2="506.79999"
       y1="532.79999"
       id="b-63"><stop
         id="stop4863"
         stop-color="#989a9b" /><stop
         id="stop4865"
         stop-color="#f6f6f7"
         offset="1" /></linearGradient><path
       d="m 426.57,529.8 -16,11 -8,-8 -2,-9 17,-5 z"
       id="e-0"
       fill-rule="evenodd" /><linearGradient
       xlink:href="#linearGradient4305"
       id="linearGradient4311"
       x1="16.75"
       y1="-4.5"
       x2="36"
       y2="32"
       gradientUnits="userSpaceOnUse" /><radialGradient
       xlink:href="#linearGradient4301"
       id="radialGradient4309"
       cx="20.853001"
       cy="17.349001"
       fx="20.853001"
       fy="17.349001"
       r="8.1289997"
       gradientTransform="matrix(-0.01162882,1.1950891,-1.274916,-0.0124056,46.239569,-9.6229889)"
       gradientUnits="userSpaceOnUse" /><linearGradient
       gradientTransform="translate(-384.57,-499.8)"
       gradientUnits="userSpaceOnUse"
       x2="0"
       y2="503.79999"
       y1="543.79999"
       id="a-09"><stop
         id="stop7-36"
         stop-color="#2a2c2f" /><stop
         id="stop9-0"
         stop-color="#424649"
         offset="1" /></linearGradient><linearGradient
       gradientUnits="userSpaceOnUse"
       x2="0"
       y2="506.79999"
       y1="532.79999"
       id="b-626"><stop
         id="stop12-1"
         stop-color="#989a9b" /><stop
         id="stop14-8"
         stop-color="#f6f6f7"
         offset="1" /></linearGradient><path
       d="m 426.57,529.8 -16,11 -8,-8 -2,-9 17,-5 z"
       id="e-02"
       fill-rule="evenodd" /><linearGradient
       id="a-3-3"
       y1="543.79999"
       y2="503.79999"
       x2="0"
       gradientUnits="userSpaceOnUse"><stop
         stop-color="#2a2c2f"
         id="stop4268-7" /><stop
         offset="1"
         stop-color="#424649"
         id="stop4270-5" /></linearGradient><linearGradient
       id="b-6-9"
       y1="532.79999"
       y2="506.79999"
       x2="0"
       gradientUnits="userSpaceOnUse"><stop
         stop-color="#989a9b"
         id="stop4273-2" /><stop
         offset="1"
         stop-color="#f6f6f7"
         id="stop4275-2" /></linearGradient><path
       fill-rule="evenodd"
       id="e-5-8"
       d="m 426.57,529.8 -16,11 -8,-8 -2,-9 17,-5 z" /><style
       id="current-color-scheme-8"
       type="text/css">
   .ColorScheme-Text { color:#4d4d4d; }
  </style><linearGradient
       id="e-3-3"
       y1="36"
       y2="32"
       gradientUnits="userSpaceOnUse"
       x2="0"
       gradientTransform="matrix(1,0,0,1.0091,-110.9855,-40.7775)"><stop
         stop-color="#c58c00"
         id="stop4647-2" /><stop
         offset="1"
         stop-color="#ffc318"
         id="stop4649-0" /></linearGradient><linearGradient
       gradientTransform="translate(-122.5135,-45.5035)"
       id="h-5"
       y1="43.922001"
       y2="2.987"
       x2="0"
       gradientUnits="userSpaceOnUse"><stop
         stop-color="#22a7f0"
         id="stop4658-5" /><stop
         offset="1"
         stop-color="#19b5fe"
         id="stop4660-4" /></linearGradient><linearGradient
       id="i-7"
       y1="43.922001"
       y2="34.040001"
       x2="0"
       gradientUnits="userSpaceOnUse"><stop
         stop-color="#c8e3fe"
         id="stop4663-6" /><stop
         offset="1"
         stop-color="#e4f1fe"
         id="stop4665-5" /></linearGradient><radialGradient
       cx="31.01"
       cy="48.672001"
       xlink:href="#a-8"
       id="k-3"
       r="16"
       gradientUnits="userSpaceOnUse"
       gradientTransform="matrix(0.59169,-0.93256,2.10028,1.33257,-80.07,8.555)" /><radialGradient
       cx="30.299999"
       cy="38.130001"
       xlink:href="#a-8"
       id="l-7"
       r="16"
       gradientUnits="userSpaceOnUse"
       gradientTransform="matrix(0.53188,-0.49081,0.78529,0.851,-19.809,-0.579)" /><linearGradient
       id="a-0-4"
       y1="543.79999"
       y2="503.79999"
       x2="0"
       gradientUnits="userSpaceOnUse"><stop
         stop-color="#2a2c2f"
         id="stop4858-5" /><stop
         offset="1"
         stop-color="#424649"
         id="stop4860-2" /></linearGradient><linearGradient
       id="b-63-5"
       y1="532.79999"
       y2="506.79999"
       x2="0"
       gradientUnits="userSpaceOnUse"><stop
         stop-color="#989a9b"
         id="stop4863-4" /><stop
         offset="1"
         stop-color="#f6f6f7"
         id="stop4865-7" /></linearGradient><path
       fill-rule="evenodd"
       id="e-0-4"
       d="m 426.57,529.8 -16,11 -8,-8 -2,-9 17,-5 z" /></defs><metadata
     id="metadata5458" /><g
     id="g7"
     transform="translate(-0.03125,-0.789875)"><path
       id="rect2"
       style="display:inline;fill:#09bec8;fill-opacity:1;fill-rule:evenodd;stroke-width:0"
       d="m 5.1127156,6.046875 c -2.8151291,0 -5.0814656,2.2298671 -5.0814656,4.999696 v 27.486608 c 0,2.769829 2.2663365,4.999696 5.0814656,4.999696 H 8.135791 c -2.8151294,0 -5.081466,-2.229867 -5.081466,-4.999696 V 11.046571 c 0,-2.7698289 2.2663366,-4.999696 5.081466,-4.999696 z" /><path
       id="rect3"
       style="display:inline;fill:#09bec8;fill-opacity:1;fill-rule:evenodd;stroke-width:0"
       d="m 10.136618,6.046875 c -2.8151294,0 -5.0814659,2.2298671 -5.0814659,4.999696 v 27.486608 c 0,2.769829 2.2663365,4.999696 5.0814659,4.999696 h 32.813167 c 2.815128,0 5.081465,-2.229867 5.081465,-4.999696 V 11.046571 c 0,-2.7698289 -2.266337,-4.999696 -5.081465,-4.999696 z m 16.619965,7.308149 c 0.267194,-0.0088 0.532193,0.06855 0.764205,0.238267 l 12.225291,8.353008 a 1.0163947,1.0000391 0 0 1 0.0059,0.0039 c 0.313439,0.218003 0.524025,0.586665 0.524025,0.988221 0,0.396498 -0.218153,0.770983 -0.514101,0.982362 a 1.0163947,1.0000391 0 0 1 -0.01588,0.01367 l -12.253081,8.370584 0.0258,-0.01953 c -0.373344,0.273043 -0.834162,0.31037 -1.248531,0.130852 -0.415872,-0.18103 -0.764076,-0.631707 -0.740386,-1.146415 v -3.794691 h -1.29617 c -1.600985,10e-7 -3.129285,0.56137 -4.229923,1.523345 -1.100607,0.961954 -1.691176,2.231281 -1.691176,3.540801 -0.0023,1.371524 0.458891,2.71787 1.34778,3.880623 A 1.0163947,1.0000391 0 0 1 18.364165,37.9004 c -1.345089,-0.717505 -2.520949,-1.663886 -3.457729,-2.79084 a 1.0163947,1.0000391 0 0 1 -0.01786,-0.02148 c -1.392729,-1.778012 -2.123977,-3.91735 -2.07427,-6.097285 0.003,-3.139936 1.128598,-5.837783 3.152097,-7.70461 2.026225,-1.869343 4.900125,-2.882637 8.26532,-2.882637 h 1.296172 v -3.841567 l 0.002,0.05078 c -0.02696,-0.534259 0.323248,-0.968975 0.75031,-1.15032 0.154618,-0.06583 0.316073,-0.102146 0.476388,-0.107416 z m 0.803903,2.699055 v 2.843577 c 0,0.432769 -0.203866,0.837647 -0.510131,1.105401 -0.309621,0.270657 -0.691048,0.400366 -1.083782,0.400366 h -1.734844 c -2.954668,0 -5.279942,0.869306 -6.875858,2.341655 -1.595914,1.472348 -2.510958,3.571465 -2.510958,6.257431 a 1.0163947,1.0000391 0 0 0 0,0.002 1.0163947,1.0000391 0 0 0 0,0.002 1.0163947,1.0000391 0 0 0 0,0.002 1.0163947,1.0000391 0 0 0 0,0.002 1.0163947,1.0000391 0 0 0 0,0.002 1.0163947,1.0000391 0 0 0 0,0.002 1.0163947,1.0000391 0 0 0 0,0.002 1.0163947,1.0000391 0 0 0 0,0.002 1.0163947,1.0000391 0 0 0 0,0.002 1.0163947,1.0000391 0 0 0 0,0.002 1.0163947,1.0000391 0 0 0 0,0.002 1.0163947,1.0000391 0 0 0 0,0.002 c -0.04163,1.711208 0.526311,3.3917 1.647507,4.827831 0.0032,0.0039 0.0086,0.006 0.01191,0.0098 -0.07478,-0.443541 -0.225065,-0.87352 -0.2243,-1.326091 5.93e-4,-1.905637 0.874063,-3.723874 2.373998,-5.03485 1.500413,-1.311382 3.500971,-2.02722 5.579688,-2.02722 h 1.732858 c 0.392874,1e-6 0.774277,0.129918 1.083782,0.400366 0.306455,0.267845 0.512117,0.67279 0.512117,1.105402 v 2.841624 l 10.073608,-6.882394 z" /></g></svg>
