<?xml version="1.0" encoding="UTF-8" standalone="no"?>
<!-- Created with Inkscape (http://www.inkscape.org/) -->

<svg
   width="64"
   height="64"
   viewBox="0 0 64 64"
   version="1.1"
   id="svg1"
   inkscape:version="1.3.2 (091e20ef0f, 2023-11-25, custom)"
   sodipodi:docname="info.svg"
   inkscape:export-filename="download.png"
   inkscape:export-xdpi="24"
   inkscape:export-ydpi="24"
   xmlns:inkscape="http://www.inkscape.org/namespaces/inkscape"
   xmlns:sodipodi="http://sodipodi.sourceforge.net/DTD/sodipodi-0.dtd"
   xmlns="http://www.w3.org/2000/svg"
   xmlns:svg="http://www.w3.org/2000/svg">
  <sodipodi:namedview
     id="namedview1"
     pagecolor="#ffffff"
     bordercolor="#000000"
     borderopacity="0.25"
     inkscape:showpageshadow="2"
     inkscape:pageopacity="0.0"
     inkscape:pagecheckerboard="0"
     inkscape:deskcolor="#d1d1d1"
     inkscape:document-units="px"
     inkscape:zoom="12.308078"
     inkscape:cx="59.919999"
     inkscape:cy="30.224054"
     inkscape:window-width="2991"
     inkscape:window-height="1194"
     inkscape:window-x="0"
     inkscape:window-y="0"
     inkscape:window-maximized="1"
     inkscape:current-layer="svg1" />
  <defs
     id="defs1" />
  <g
     inkscape:label="Layer 1"
     inkscape:groupmode="layer"
     id="layer1"
     transform="matrix(0.13454107,0,0,0.13454107,-2.8135283,-2.3188431)">
    <circle
       style="fill:#46bac6;fill-opacity:1"
       id="path1"
       cx="258.75763"
       cy="255.0808"
       r="237.8456" />
  </g>
  <path
     style="font-size:54.913px;line-height:0px;font-family:Circe;-inkscape-font-specification:Circe;text-align:center;text-anchor:middle;fill:#ffffff;fill-rule:evenodd;stroke:#46bac6;stroke-width:0"
     d="m 29.226894,15.420605 c 0,-0.768782 0.274565,-1.391129 0.823695,-1.867042 0.54913,-0.512521 1.22639,-0.768782 2.031781,-0.768782 0.768782,0 1.409434,0.256261 1.921955,0.768782 0.512521,0.475913 0.768782,1.09826 0.768782,1.867042 0,0.841999 -0.256261,1.537564 -0.768782,2.086694 -0.512521,0.512521 -1.153173,0.768782 -1.921955,0.768782 -0.805391,0 -1.482651,-0.256261 -2.031781,-0.768782 -0.54913,-0.54913 -0.823695,-1.244695 -0.823695,-2.086694 z"
     id="path2" />
  <rect
     style="fill:#ffffff;fill-rule:evenodd;stroke:#46bac6;stroke-width:0"
     id="rect2"
     width="4.5960503"
     height="28.840216"
     x="29.701975"
     y="21"
     rx="2"
     ry="2" />
</svg>
