<?xml version="1.0" encoding="UTF-8" standalone="no"?>
<!-- Created with Inkscape (http://www.inkscape.org/) -->

<svg
        xmlns:inkscape="http://www.inkscape.org/namespaces/inkscape"
        xmlns:sodipodi="http://sodipodi.sourceforge.net/DTD/sodipodi-0.dtd"
        width="64"
        height="64"
        viewBox="0 0 64 64"
        version="1.1"
        id="svg1"
        inkscape:version="1.3.2 (091e20ef0f, 2023-11-25, custom)"
        sodipodi:docname="question.svg"
        inkscape:export-filename="download.png"
        inkscape:export-xdpi="24"
        inkscape:export-ydpi="24"
        xmlns="http://www.w3.org/2000/svg"
>
    <sodipodi:namedview
            id="namedview1"
            pagecolor="#ffffff"
            bordercolor="#000000"
            borderopacity="0.25"
            inkscape:showpageshadow="2"
            inkscape:pageopacity="0.0"
            inkscape:pagecheckerboard="0"
            inkscape:deskcolor="#d1d1d1"
            inkscape:document-units="px"
            inkscape:zoom="12.308078"
            inkscape:cx="35.545762"
            inkscape:cy="25.511701"
            inkscape:window-width="2991"
            inkscape:window-height="1194"
            inkscape:window-x="0"
            inkscape:window-y="0"
            inkscape:window-maximized="1"
            inkscape:current-layer="svg1"/>
    <defs
            id="defs1"/>
    <g
            inkscape:label="Layer 1"
            inkscape:groupmode="layer"
            id="layer1"
            transform="matrix(0.13454107,0,0,0.13454107,-2.8135283,-2.3188431)">
        <circle
                style="fill:#46bac6;fill-opacity:1"
                id="path1"
                cx="258.75763"
                cy="255.0808"
                r="237.8456"/>
    </g>
    <path
            style="font-size:54.913px;line-height:0px;font-family:Circe;-inkscape-font-specification:Circe;text-align:center;text-anchor:middle;fill:#ffffff;fill-rule:evenodd;stroke:#46bac6;stroke-width:0"
            d="m 38.41412,22.856986 c 0,-1.683999 -0.640651,-3.111737 -1.921954,-4.283214 -1.244695,-1.171477 -2.837172,-1.757216 -4.777431,-1.757216 -3.148345,0 -5.710952,1.354521 -7.68782,4.063562 -1.490304,1.033702 -4.342975,-0.248439 -2.635824,-2.910389 1.025043,-1.683999 2.489389,-3.020215 4.39304,-4.008649 1.903651,-1.025043 3.97204,-1.537564 6.205169,-1.537564 3.404606,0 6.113647,0.915217 8.127123,2.74565 2.013477,1.793825 3.020215,4.045258 3.020215,6.754299 0,1.720607 -0.292869,3.239867 -0.878608,4.557779 -0.146435,0.366087 -0.311174,0.713869 -0.494217,1.043347 -0.183043,0.329478 -0.402695,0.658956 -0.658956,0.988434 -0.256261,0.292869 -0.475913,0.54913 -0.658956,0.768782 -0.146435,0.183043 -0.402695,0.439304 -0.768782,0.768781 -0.366087,0.292869 -0.622347,0.512521 -0.768782,0.658956 -0.109826,0.109826 -0.384391,0.347782 -0.823694,0.713869 -0.439304,0.329478 -0.713869,0.530826 -0.823695,0.604043 -0.219652,0.183043 -0.530826,0.439304 -0.933521,0.768782 -0.366087,0.292869 -0.658956,0.530826 -0.878608,0.713869 -0.183043,0.183043 -0.439304,0.421 -0.768782,0.713869 -0.329478,0.292869 -0.585739,0.54913 -0.768782,0.768782 -0.183043,0.219652 -0.384391,0.494217 -0.604043,0.823695 -0.219652,0.329478 -0.384391,0.640652 -0.494217,0.933521 -0.07322,0.292869 -0.164739,0.622347 -0.274565,0.988434 -0.07322,0.366087 -0.109826,0.768782 -0.109826,1.208086 0.03661,0.402695 0.09152,0.841999 0.164739,1.317912 -0.401705,1.990093 -3.482544,1.777267 -3.953736,0.05491 -0.658956,-3.477823 0.201348,-6.205169 2.580911,-8.182037 0.366087,-0.292869 0.97013,-0.750478 1.812129,-1.372825 0.878608,-0.658955 1.555868,-1.189781 2.031781,-1.592476 0.475913,-0.439304 1.006738,-0.988434 1.592477,-1.64739 0.622347,-0.658956 1.061651,-1.372825 1.317912,-2.141607 0.292869,-0.768782 0.439303,-1.610781 0.439303,-2.525998 z M 27.541347,48.446443 c 0,-0.805391 0.292869,-1.482651 0.878608,-2.031781 0.585739,-0.585739 1.354521,-0.878608 2.306346,-0.878608 0.768782,0 1.446042,0.292869 2.031781,0.878608 0.585739,0.585739 0.878608,1.262999 0.878608,2.031781 0,0.878608 -0.274565,1.629086 -0.823695,2.251433 -0.54913,0.585739 -1.244695,0.878608 -2.086694,0.878608 -0.951825,0 -1.720607,-0.292869 -2.306346,-0.878608 -0.585739,-0.622347 -0.878608,-1.372825 -0.878608,-2.251433 z"
            id="text1"
            aria-label="?"
            sodipodi:nodetypes="scscccscscscccsccccsssccccccccccssscssscscs"/>
</svg>
