<svg id="Capa_1" enable-background="new 0 0 512 512" height="512" viewBox="0 0 512 512" width="512" xmlns="http://www.w3.org/2000/svg"><g><g><g><path d="m342.225 77.426-81.511-75.99c-2.812-2.621-7.401-1.504-8.662 2.127-7.075 20.366-18.406 39.623-34.053 56.406s-34.063 29.436-53.883 37.92c-3.534 1.513-4.327 6.168-1.515 8.79l81.509 75.988c3.079 2.871 7.555 3.655 11.438 2.029 20.26-8.484 39.087-21.303 55.037-38.412 15.985-17.146 27.469-36.873 34.509-57.726 1.329-3.94.173-8.297-2.869-11.132z" fill="#5e54ac"/></g><g><path d="m342.225 77.426-11.912-11.105c-6.377 11.891-14.364 23.166-23.998 33.501-15.95 17.109-34.778 29.928-55.037 38.412-3.883 1.626-8.358.842-11.438-2.029l-53.577-49.947c-7.125 4.49-14.531 8.372-22.148 11.632-3.534 1.513-4.327 6.168-1.515 8.79l81.509 75.988c3.079 2.871 7.555 3.655 11.438 2.028 20.26-8.483 39.087-21.303 55.037-38.412 15.984-17.146 27.468-36.873 34.508-57.726 1.331-3.94.175-8.297-2.867-11.132z" fill="#524798"/></g></g><g><g><path d="m402.231 192.342h-292.462l30.787 288.207c1.911 17.885 17.002 31.45 34.989 31.45h160.91c17.987 0 33.078-13.565 34.989-31.45z" fill="#ecf4ff"/></g><g><path d="m360.55 192.342-26.764 250.55c-1.91 17.885-17.002 31.45-34.989 31.45h-158.904l.663 6.207c1.91 17.885 17.002 31.45 34.989 31.45h160.91c17.987 0 33.078-13.565 34.989-31.45l30.787-288.208h-41.681z" fill="#ddeafb"/></g></g><path d="m397.878 233.091-18.25 18.25-20.487-20.487 19.308-19.308c2.997-2.997 2.997-7.856 0-10.852-2.998-2.997-7.856-2.997-10.853 0l-19.307 19.307-13.279-13.279c-2.998-2.997-7.856-2.997-10.853 0s-2.997 7.856 0 10.852l13.28 13.279-20.082 20.082-20.082-20.082 14.078-14.078c2.997-2.997 2.997-7.856 0-10.852-2.998-2.997-7.856-2.997-10.853 0l-14.077 14.077-14.077-14.077c-2.998-2.997-7.856-2.997-10.853 0s-2.997 7.856 0 10.852l14.078 14.078-19.715 19.715-19.715-19.715 19.308-19.308c2.997-2.997 2.997-7.856 0-10.852-2.997-2.997-7.855-2.997-10.853 0l-19.307 19.307-11.388-11.388c-2.998-2.997-7.856-2.997-10.853 0s-2.997 7.856 0 10.852l11.389 11.389-20.082 20.082-20.082-20.082 13.28-13.28c2.997-2.997 2.997-7.856 0-10.852-2.998-2.997-7.856-2.997-10.853 0l-13.28 13.279-14.078-14.078c-2.998-2.997-7.856-2.997-10.853 0s-2.997 7.856 0 10.852l14.078 14.078-20.486 20.486-17.917-17.917 2.596 24.302 4.468 4.468-3.605 3.605 2.095 19.611 12.363-12.363 20.082 20.082-20.082 20.082-10.517-10.517 4.125 38.615 6.392-6.392 19.715 19.715-19.715 19.715-3.205-3.205 2.714 25.402.492-.491 20.082 20.082-16.697 16.697 3.406 31.88 13.696 13.696-10.18 10.18c1.798 5.072 4.716 9.584 8.443 13.263l12.59-12.59 20.082 20.082-2.665 2.66h27.021l-2.658-2.658 20.082-20.082 19.715 19.715-3.024 3.025h27.755l-3.025-3.025 19.715-19.715 20.082 20.082-2.657 2.658h27.022l-2.658-2.658 20.082-20.082 12.737 12.737c3.745-3.652 6.684-8.143 8.512-13.194l-10.396-10.396 14.03-14.03 3.341-31.278-16.967-16.967 20.082-20.082.761.761 2.778-26.007-3.54 3.54-19.715-19.715 19.715-19.715 6.662 6.661 4.189-39.218-10.851 10.851-20.082-20.082 20.082-20.082 12.632 12.633 2.095-19.611-3.874-3.875 4.801-4.801zm-60.038 60.037-19.715 19.715-20.487-20.487 19.715-19.715zm-61.503 61.503-20.486 20.486-20.487-20.487 20.486-20.486zm-9.633-31.339 20.082-20.082 20.487 20.487-20.082 20.082zm-42.192 20.486-20.082-20.082 20.486-20.486 20.082 20.082zm-10.853 10.852-20.082 20.082-20.082-20.082 20.082-20.082zm.404 62.275-19.715 19.715-20.486-20.486 19.715-19.715zm-9.633-31.34 20.082-20.082 20.487 20.487-20.082 20.082zm51.421 11.258 20.082 20.082-20.082 20.082-20.082-20.082zm10.853-10.853 20.486-20.486 20.082 20.082-20.486 20.486zm51.421 10.448 19.715 19.715-20.486 20.486-19.715-19.715zm-20.082-41.787 20.082-20.082 20.082 20.082-20.082 20.082zm-11.625-112.924 20.082 20.082-19.715 19.715-20.082-20.082zm-10.485 50.65-20.082 20.082-20.082-20.082 20.082-20.082zm-50.65-50.65 19.715 19.715-20.082 20.082-19.715-19.715zm-11.22 50.65-20.486 20.486-19.715-19.715 20.486-20.486zm-71.136-30.164 20.486-20.486 20.082 20.082-20.486 20.486zm0 61.869 20.082-20.082 19.715 19.715-20.082 20.082zm0 61.137 19.715-19.715 20.082 20.082-19.715 19.715zm0 61.869 20.082-20.082 20.486 20.486-20.082 20.082zm51.421 51.421-20.082-20.082 20.082-20.082 20.082 20.082zm10.853-51.016 19.715-19.715 20.082 20.082-19.715 19.715zm50.65 50.65-19.715-19.715 19.715-19.715 19.715 19.715zm30.567-30.569-19.715-19.715 20.082-20.082 19.715 19.715zm30.936 30.935-20.082-20.082 20.082-20.082 20.082 20.082zm51.421-51.421-20.487 20.486-20.082-20.082 20.486-20.486zm-.001-61.87-20.082 20.082-19.715-19.715 20.082-20.082zm.001-61.135-19.715 19.715-20.082-20.082 19.715-19.715zm-20.082-41.788-20.487-20.487 20.082-20.082 20.487 20.487z" fill="#cbe2ff"/><g><g><path d="m407.778 232.733h-303.556c-8.284 0-15-6.716-15-15v-26.153c0-8.284 6.716-15 15-15h303.556c8.284 0 15 6.716 15 15v26.153c0 8.284-6.716 15-15 15z" fill="#ecf4ff"/></g><g><path d="m407.778 176.58h-7.647v18.506c0 8.284-6.716 15-15 15h-295.909v7.647c0 8.284 6.716 15 15 15h303.556c8.284 0 15-6.716 15-15v-26.153c0-8.284-6.716-15-15-15z" fill="#ddeafb"/></g></g><g><g><circle cx="256" cy="354.171" fill="#b1e4f9" r="83.109"/></g><g><path d="m305.644 287.514c10.334 13.852 16.452 31.034 16.452 49.645 0 45.9-37.209 83.109-83.109 83.109-18.611 0-35.792-6.118-49.644-16.452 15.152 20.311 39.368 33.464 66.657 33.464 45.9 0 83.109-37.209 83.109-83.109 0-27.289-13.153-51.505-33.465-66.657z" fill="#90d8f9"/></g><g fill="#4d5961"><path d="m256 309.049c-24.881 0-45.122 20.242-45.122 45.122 0 7.005 1.656 13.918 4.757 20.141l-5.333 3.154c-3.095 1.83-2.391 6.497 1.106 7.333l17.836 4.264c2.623.627 5.27-.939 5.984-3.539l4.856-17.684c.952-3.468-2.798-6.333-5.893-4.502l-5.608 3.317c-1.777-3.879-2.705-8.098-2.705-12.484 0-16.609 13.513-30.122 30.122-30.122 4.143 0 7.5-3.358 7.5-7.5s-3.357-7.5-7.5-7.5z"/><path d="m302.106 326.145-17.836-4.264c-2.623-.627-5.27.939-5.984 3.539l-4.856 17.684c-.952 3.467 2.798 6.333 5.893 4.502l5.222-3.088c1.04 3.075 1.577 6.32 1.577 9.653 0 16.358-13.302 29.869-29.651 30.119-4.142.063-7.448 3.472-7.385 7.613.062 4.103 3.408 7.386 7.497 7.386.038 0 .077 0 .116-.001 24.495-.374 44.423-20.613 44.423-45.117 0-6.066-1.188-11.943-3.476-17.401l5.566-3.292c3.095-1.83 2.392-6.497-1.106-7.333z"/></g></g></g></svg>