<svg xmlns="http://www.w3.org/2000/svg" viewBox="0 0 64 64" width="64px" height="64px"><path fill="#72caaf" d="M31 5A28 28 0 1 0 31 61A28 28 0 1 0 31 5Z"/><path fill="#88d7b6" d="M31 21A12 12 0 1 0 31 45A12 12 0 1 0 31 21Z"/><path fill="#8d6c9f" d="M31 47a1 1 0 0 0 1-1V44a1 1 0 0 0-2 0v2A1 1 0 0 0 31 47zM31 23a1 1 0 0 0 1-1V20a1 1 0 0 0-2 0v2A1 1 0 0 0 31 23zM41 33a1 1 0 0 0 1 1h2a1 1 0 0 0 0-2H42A1 1 0 0 0 41 33zM21 33a1 1 0 0 0-1-1H18a1 1 0 0 0 0 2h2A1 1 0 0 0 21 33zM41.76 25.63l-1.73 1a1 1 0 0 0 1 1.73l1.73-1a1 1 0 1 0-1-1.73zM19.74 40.5a1 1 0 0 0 .5-.13l1.73-1a1 1 0 1 0-1-1.73l-1.73 1a1 1 0 0 0 .5 1.87zM36 24.34A1 1 0 0 0 37.37 24l1-1.73a1 1 0 0 0-1.73-1l-1 1.73A1 1 0 0 0 36 24.34zM24 45.13a1 1 0 0 0 1.37-.37l1-1.73a1 1 0 0 0-1.73-1l-1 1.73A1 1 0 0 0 24 45.13z"/><path fill="#faefde" d="M31,15a18.24,18.24,0,0,1,3.17.28l.18,0a1,1,0,0,0,.17-2A20.15,20.15,0,0,0,31,13a1,1,0,0,0,0,2Z"/><path fill="#8d6c9f" d="M31,4A29,29,0,1,0,60,33,29,29,0,0,0,31,4Zm0,56A27,27,0,1,1,58,33,27,27,0,0,1,31,60Z"/><path fill="#faefde" d="M38.8,14.58A1,1,0,0,0,38,16.42,18,18,0,1,1,21,18v5a1,1,0,0,0,2,0V16a1,1,0,0,0-1-1H14.92a1,1,0,0,0,0,2H19A20,20,0,1,0,38.8,14.58Z"/></svg>